<svg 
          width="197.09649658203125" 
          height="187.94290161132812" fill="none" 
          xmlns="http://www.w3.org/2000/svg">
          <path d="M 120.30229109357663 0 L 135.3401058327529 9.282127830982205 C 120.66870049230103 19.912128070675834 112.78012947153185 47.493970678154625 110.61158897208465 63.46072802236006 C 111.68948088054951 46.85667393318802 115.07520998534453 16.54459507147663 120.30229109357663 0 Z M 67.50102574536447 23.49672121625183 C 88.28361982052101 26.306451059659103 104.10704857310627 39.34748469679738 107.90888631462248 55.352619700754246 C 91.15434571348159 50.08288979308727 66.48804707967385 46.284191280656806 45.78926422178851 43.315001932351315 C 29.31829094138992 40.294461409189694 10.404783796435206 38.33512458705025 0 25.419988528296145 C 23.894972014605912 27.085934527387746 45.573566292511344 22.910504968554804 67.50102574536447 23.49672121625183 Z M 109.23515343175382 73.00134799486156 C 110.03245068026456 73.43837502095968 111.05680046214528 73.43837502095968 111.85409771065602 73.00134799486156 C 139.8029896815535 58.06161801402598 160.9877894491765 56.54892425974352 175.04668071643133 65.3081137867982 C 189.10557198368616 74.06730331385289 197.09649658203125 93.82663664565368 197.09649658203125 123.75933998806195 C 197.09649658203125 143.18798931943968 188.63459993041255 162.55164445569383 173.77943830600307 174.76840092790712 C 158.9242766815936 186.98461741424325 137.75002016998673 192.33642581961263 111.43169732050319 183.7161550697639 C 110.8875621779288 183.54047939590617 110.28615232904731 183.54047939590617 109.74204420992966 183.7161550697639 C 83.42372136044612 192.33642581961263 62.24945453884682 186.98461741424325 47.39429291443735 174.76840092790712 C 32.53913129002788 162.55164445569383 24.077242370903495 143.18798931943968 24.077242370903495 123.75933998806195 C 24.077242370903495 93.26609522018994 32.238890134016486 73.33541818357159 46.38051135808567 64.63920144866117 C 66.84613244825425 53.31298478780811 92.30693714176081 63.76053681597651 109.23515343175382 73.00134799486156 Z" fill="rgb(53.00000064074993,204.00000303983688,140.00000685453415)"/>
        </svg>